# xmcd CD database file
#
# Track frame offsets:
#	182
#	11640
#	28755
#	48252
#	67725
#	79782
#	97852
#	116230
#	133552
#	147117
#	169062
#	183412
#	199445
#	220217
#	236050
#
# Disc length: 3466 seconds
#
# Revision: 8
# Processed by: cddbd v1.4PL0 Copyright (c) Steve Scherf et al.
# Submitted via: CDex 1.51
#
DISCID=cf0d880f
DTITLE=Travis Tritt - Travis Tritt_Greatest Hits From The Beginning
DYEAR=1995
DGENRE=Country
TTITLE0=Here's A Quarter
TTITLE1=Anymore
TTITLE2=Put Some Drive In Your Country
TTITLE3=Foolish Pride
TTITLE4=The Wiskey Ain't Workin'
TTITLE5=Help Me Hold On
TTITLE6=I'm Gonna Be Somebody
TTITLE7=Only You
TTITLE8=T-R-O-U-B-L-E
TTITLE9=Tell Me I Was Dreaming
TTITLE10=Country Club
TTITLE11=Can I Trust You With My Heart
TTITLE12=Sometimes She Forgets
TTITLE13=Ten Feet Tall And Bullet Proof
TTITLE14=Drift Off To Dream
EXTD=YEAR: 1995
EXTT0=
EXTT1=
EXTT2=
EXTT3=
EXTT4=w/ Marty Stuart
EXTT5=
EXTT6=
EXTT7=
EXTT8=
EXTT9=
EXTT10=
EXTT11=
EXTT12=
EXTT13=
EXTT14=
PLAYORDER=
